<svg width="349" height="1839" viewBox="0 0 349 1839" fill="none" xmlns="http://www.w3.org/2000/svg">
<path d="M0.00012207 0H347.518V447.171L0.00012207 0Z" fill="#E8CDAD"/>
<path d="M171.372 972.004L347.748 1169.27V735.615L171.372 972.004Z" fill="#E8CDAD"/>
<path d="M171.372 972.004L347.748 1395.74V1110.86L171.372 972.004Z" fill="#9E6E35"/>
<path fill-rule="evenodd" clip-rule="evenodd" d="M347.748 1110.86V1169.27L171.372 972.004L347.748 1110.86Z" fill="#EFB169"/>
<path d="M88.1764 522.243L347.518 630.608V188.007L88.1764 522.243Z" fill="#AB8D6A"/>
<path d="M145.103 1617.38L347.748 1666.29V1221.07L145.103 1617.38Z" fill="#AB8D6A"/>
<path d="M140.725 1417.23L347.748 1838.21V1392.99L140.725 1417.23Z" fill="#F9C07D"/>
<path fill-rule="evenodd" clip-rule="evenodd" d="M193.045 1523.62L251.819 1643.14L347.748 1666.29V1392.99L254.243 1403.94L193.045 1523.62Z" fill="#CDA678"/>
<path fill-rule="evenodd" clip-rule="evenodd" d="M308.119 1298.32L347.748 1393.53V1220.79L308.119 1298.32Z" fill="#6F4D4B"/>
<path d="M87.4352 522.243L349 964.844L348.259 431.503L87.4352 522.243Z" fill="#F9C07D"/>
<path fill-rule="evenodd" clip-rule="evenodd" d="M272.853 835.994L347.748 962.726V735.615L272.853 835.994Z" fill="#B29777"/>
<path fill-rule="evenodd" clip-rule="evenodd" d="M347.518 630.609L88.1764 522.243L88.4504 521.89L347.518 431.761V630.609Z" fill="#B57E3E"/>
<path d="M246.745 317.444L348.258 431.685V188.842L246.745 317.444Z" fill="#91724F"/>
<path d="M70.77 1838.21H347.748V1546L70.77 1838.21Z" fill="#E8CDAD"/>
<path fill-rule="evenodd" clip-rule="evenodd" d="M347.748 1546V1666.29L254.953 1643.9L347.748 1546Z" fill="#D8BFA2"/>
</svg>
